<svg width="1653" height="993" xmlns="http://www.w3.org/2000/svg" xmlns:xlink="http://www.w3.org/1999/xlink" xml:space="preserve" overflow="hidden"><defs><clipPath id="clip0"><rect x="477" y="1577" width="1653" height="993"/></clipPath><clipPath id="clip1"><rect x="477" y="1577" width="1650" height="990"/></clipPath><clipPath id="clip2"><rect x="608" y="1814" width="1472" height="546"/></clipPath><clipPath id="clip3"><rect x="608" y="1814" width="1472" height="546"/></clipPath><clipPath id="clip4"><rect x="477" y="1577" width="1650" height="990"/></clipPath><clipPath id="clip5"><rect x="477" y="1577" width="1650" height="990"/></clipPath><clipPath id="clip6"><rect x="477" y="1577" width="1650" height="990"/></clipPath><clipPath id="clip7"><rect x="477" y="1577" width="1650" height="990"/></clipPath><clipPath id="clip8"><rect x="477" y="1577" width="1650" height="990"/></clipPath><clipPath id="clip9"><rect x="477" y="1577" width="1650" height="990"/></clipPath><clipPath id="clip10"><rect x="477" y="1577" width="1650" height="990"/></clipPath><clipPath id="clip11"><rect x="477" y="1577" width="1650" height="990"/></clipPath><clipPath id="clip12"><rect x="477" y="1577" width="1650" height="990"/></clipPath><clipPath id="clip13"><rect x="477" y="1577" width="1650" height="990"/></clipPath><clipPath id="clip14"><rect x="477" y="1577" width="1650" height="990"/></clipPath><clipPath id="clip15"><rect x="477" y="1577" width="1650" height="990"/></clipPath><clipPath id="clip16"><rect x="477" y="1577" width="1650" height="990"/></clipPath><clipPath id="clip17"><rect x="477" y="1577" width="1650" height="990"/></clipPath><clipPath id="clip18"><rect x="477" y="1577" width="1650" height="990"/></clipPath><clipPath id="clip19"><rect x="477" y="1577" width="1650" height="990"/></clipPath><clipPath id="clip20"><rect x="477" y="1577" width="1650" height="990"/></clipPath><clipPath id="clip21"><rect x="477" y="1577" width="1650" height="990"/></clipPath></defs><g clip-path="url(#clip0)" transform="translate(-477 -1577)"><rect x="478" y="1578" width="1650" height="990" fill="#FFFFFF"/><g clip-path="url(#clip1)"><path d="M608.5 2279.57 2077.5 2279.57M608.5 2201.57 2077.5 2201.57M608.5 2124.57 2077.5 2124.57M608.5 2047.57 2077.5 2047.57M608.5 1969.56 2077.5 1969.56M608.5 1892.56 2077.5 1892.56M608.5 1814.5 2077.5 1814.5" stroke="#D9D9D9" stroke-width="3.4375" stroke-linejoin="round" stroke-miterlimit="10" fill="none"/></g><g clip-path="url(#clip2)"><path d="M969.032 1877.06 1298.04 1877.06 1298.04 2357 969.032 2357Z" fill="#3B64AD"/></g><g clip-path="url(#clip3)"><path d="M1387.05 2072.07 1717.06 2072.07 1717.06 2357 1387.05 2357Z" fill="#8FA2D4"/></g><g clip-path="url(#clip4)"><path d="M608.5 2356.5 2077.5 2356.5" stroke="#D9D9D9" stroke-width="3.4375" stroke-linejoin="round" stroke-miterlimit="10" fill="none" fill-rule="evenodd"/></g><g clip-path="url(#clip5)"><text fill="#404040" font-family="Calibri,Calibri_MSFontService,sans-serif" font-weight="400" font-size="41" transform="matrix(1 0 0 1 1102.51 1845)">310</text></g><g clip-path="url(#clip6)"><text fill="#404040" font-family="Calibri,Calibri_MSFontService,sans-serif" font-weight="400" font-size="41" transform="matrix(1 0 0 1 1520.76 2040)">184</text></g><g clip-path="url(#clip7)"><text fill="#595959" font-family="Calibri,Calibri_MSFontService,sans-serif" font-weight="400" font-size="41" transform="matrix(1 0 0 1 549.404 2368)">0</text></g><g clip-path="url(#clip8)"><text fill="#595959" font-family="Calibri,Calibri_MSFontService,sans-serif" font-weight="400" font-size="41" transform="matrix(1 0 0 1 528.504 2291)">50</text></g><g clip-path="url(#clip9)"><text fill="#595959" font-family="Calibri,Calibri_MSFontService,sans-serif" font-weight="400" font-size="41" transform="matrix(1 0 0 1 507.604 2213)">100</text></g><g clip-path="url(#clip10)"><text fill="#595959" font-family="Calibri,Calibri_MSFontService,sans-serif" font-weight="400" font-size="41" transform="matrix(1 0 0 1 507.604 2136)">150</text></g><g clip-path="url(#clip11)"><text fill="#595959" font-family="Calibri,Calibri_MSFontService,sans-serif" font-weight="400" font-size="41" transform="matrix(1 0 0 1 507.604 2059)">200</text></g><g clip-path="url(#clip12)"><text fill="#595959" font-family="Calibri,Calibri_MSFontService,sans-serif" font-weight="400" font-size="41" transform="matrix(1 0 0 1 507.604 1981)">250</text></g><g clip-path="url(#clip13)"><text fill="#595959" font-family="Calibri,Calibri_MSFontService,sans-serif" font-weight="400" font-size="41" transform="matrix(1 0 0 1 507.604 1904)">300</text></g><g clip-path="url(#clip14)"><text fill="#595959" font-family="Calibri,Calibri_MSFontService,sans-serif" font-weight="400" font-size="41" transform="matrix(1 0 0 1 507.604 1827)">350</text></g><g clip-path="url(#clip15)"><text fill="#595959" font-family="Calibri,Calibri_MSFontService,sans-serif" font-weight="400" font-size="41" transform="matrix(1 0 0 1 1194.31 2422)">JSON serialization</text></g><g clip-path="url(#clip16)"><text fill="#595959" font-family="Calibri,Calibri_MSFontService,sans-serif" font-weight="400" font-size="64" transform="matrix(1 0 0 1 699.738 1673)">Jiterpreter JSON serialization peformance (ms)</text></g><g clip-path="url(#clip17)"><text fill="#595959" font-family="Calibri,Calibri_MSFontService,sans-serif" font-style="italic" font-weight="400" font-size="55" transform="matrix(1 0 0 1 1138 1743)">Lower is better</text></g><g clip-path="url(#clip18)"><rect x="969" y="2490" width="23.0001" height="23" fill="#3B64AD"/></g><g clip-path="url(#clip19)"><text fill="#595959" font-family="Calibri,Calibri_MSFontService,sans-serif" font-weight="400" font-size="41" transform="matrix(1 0 0 1 1001.33 2513)">.NET 8 Preview 1</text></g><g clip-path="url(#clip20)"><rect x="1339" y="2490" width="23" height="23" fill="#8FA2D4"/></g><g clip-path="url(#clip21)"><text fill="#595959" font-family="Calibri,Calibri_MSFontService,sans-serif" font-weight="400" font-size="41" transform="matrix(1 0 0 1 1371.63 2513)">.NET 8 Preview 2</text></g><rect x="478.5" y="1578.5" width="1650" height="990" stroke="#D9D9D9" stroke-width="3.4375" stroke-linejoin="round" stroke-miterlimit="10" fill="none"/></g></svg>